<svg width="180" height="40" viewBox="0 0 180 40" fill="none" xmlns="http://www.w3.org/2000/svg">
<path d="M37.5916 4.28664C37.4294 4.14635 37.2319 4.05308 37.0206 4.01688C36.8092 3.98069 36.5921 4.00294 36.3924 4.08125L2.30742 17.4329C1.89284 17.5953 1.54208 17.8879 1.30782 18.2668C1.07355 18.6458 0.968433 19.0905 1.00824 19.5344C1.04805 19.9782 1.23064 20.3971 1.52859 20.7282C1.82654 21.0593 2.22377 21.2847 2.66062 21.3706L11.763 23.1601V33.293C11.7631 33.7627 11.9036 34.2217 12.1662 34.611C12.4289 35.0003 12.8018 35.3022 13.237 35.4779C13.6723 35.6536 14.15 35.695 14.609 35.597C15.068 35.499 15.4872 35.2659 15.8129 34.9276L20.2935 30.2762L27.2867 36.4125C27.7137 36.7906 28.264 36.9995 28.8341 37C29.083 36.9995 29.3304 36.9603 29.5674 36.8838C29.9559 36.7608 30.3053 36.5379 30.581 36.2375C30.8566 35.9371 31.0487 35.5697 31.1382 35.1717L37.97 5.44319C38.0181 5.23419 38.0082 5.01603 37.9415 4.81223C37.8748 4.60843 37.7539 4.4267 37.5916 4.28664ZM3.02559 19.3824C3.01914 19.365 3.01914 19.3459 3.02559 19.3285C3.03317 19.3226 3.0417 19.3181 3.05081 19.3151L29.9121 8.78994L12.5383 21.2477L3.05081 19.3891L3.02559 19.3824ZM14.3598 33.5236C14.3134 33.5718 14.2538 33.605 14.1885 33.6191C14.1232 33.6332 14.0552 33.6275 13.9931 33.6028C13.9311 33.578 13.8778 33.5354 13.84 33.4802C13.8023 33.425 13.7818 33.3598 13.7812 33.293V24.5574L18.7747 28.9345L14.3598 33.5236ZM29.1721 34.7155C29.1597 34.7724 29.1322 34.825 29.0926 34.8676C29.0529 34.9103 29.0026 34.9415 28.9467 34.9579C28.8898 34.978 28.8285 34.9823 28.7693 34.9704C28.7101 34.9586 28.6552 34.931 28.6104 34.8906L14.3934 22.4076L35.4775 7.28323L29.1721 34.7155Z" fill="white"/>
<path d="M99.7859 23.105L94.4521 20.4383C94.2946 20.36 94.1192 20.3246 93.9436 20.3357C93.768 20.3468 93.5984 20.4041 93.452 20.5017L90.8385 22.2433C89.5154 21.566 88.439 20.4896 87.7615 19.1667L89.505 16.555C89.6026 16.4086 89.6599 16.2391 89.671 16.0635C89.6821 15.8879 89.6467 15.7125 89.5684 15.555L86.9015 10.2217C86.8185 10.0548 86.6906 9.91443 86.5322 9.81637C86.3738 9.7183 86.1911 9.66646 86.0047 9.66667C84.3249 9.66667 82.7138 10.3339 81.526 11.5217C80.3381 12.7094 79.6708 14.3203 79.6708 16C79.6752 19.8001 81.1869 23.4433 83.8742 26.1303C86.5615 28.8174 90.205 30.3289 94.0054 30.3333C95.6853 30.3333 97.2963 29.6661 98.4842 28.4783C99.672 27.2906 100.339 25.6797 100.339 24C100.339 23.8141 100.288 23.6319 100.19 23.4738C100.092 23.3157 99.9522 23.188 99.7859 23.105ZM94.0054 28.3333C90.7354 28.3294 87.6003 27.0287 85.2881 24.7166C82.9758 22.4045 81.675 19.2698 81.671 16C81.6711 14.9542 82.0495 13.9436 82.7363 13.1549C83.4231 12.3661 84.372 11.8523 85.408 11.7083L87.5182 15.9283L85.7864 18.525C85.6954 18.662 85.6396 18.8192 85.6239 18.9829C85.6082 19.1466 85.6331 19.3116 85.6964 19.4633C86.616 21.6496 88.3553 23.3888 90.5418 24.3083C90.6936 24.3716 90.8586 24.3965 91.0223 24.3808C91.186 24.3651 91.3432 24.3093 91.4802 24.2183L94.0771 22.4867L98.2975 24.5967C98.1535 25.6325 97.6396 26.5814 96.8508 27.2682C96.062 27.9549 95.0514 28.3332 94.0054 28.3333ZM90.0051 3C87.0578 2.99938 84.161 3.76488 81.5988 5.22139C79.0367 6.67791 76.8972 8.7754 75.3903 11.3081C73.8833 13.8408 73.0608 16.7217 73.0032 19.6682C72.9457 22.6146 73.6552 25.5254 75.0621 28.115L73.1252 33.9267C72.9881 34.3378 72.9682 34.779 73.0678 35.2008C73.1673 35.6226 73.3824 36.0083 73.6889 36.3148C73.9953 36.6212 74.3811 36.8363 74.803 36.9358C75.2248 37.0353 75.666 37.0154 76.0772 36.8783L81.8894 34.9417C84.1645 36.1762 86.6916 36.875 89.2779 36.9847C91.8641 37.0944 94.4413 36.6122 96.8129 35.5747C99.1845 34.5373 101.288 32.972 102.963 30.9984C104.637 29.0247 105.839 26.6947 106.477 24.186C107.114 21.6773 107.17 19.0562 106.641 16.5226C106.111 13.989 105.01 11.6097 103.421 9.56616C101.832 7.52266 99.7979 5.86889 97.4729 4.73096C95.1479 3.59304 92.5937 3.001 90.0051 3ZM90.0051 35C87.3681 35.0006 84.7775 34.3062 82.4944 32.9867C82.3422 32.8993 82.1699 32.8528 81.9944 32.8517C81.8868 32.8523 81.7799 32.8697 81.6777 32.9033L75.4455 34.98C75.3867 34.9996 75.3237 35.0024 75.2634 34.9882C75.2032 34.974 75.148 34.9433 75.1043 34.8995C75.0605 34.8557 75.0298 34.8006 75.0155 34.7403C75.0013 34.6801 75.0042 34.6171 75.0237 34.5583L77.1006 28.3333C77.1455 28.1988 77.1613 28.0563 77.147 27.9152C77.1326 27.7741 77.0884 27.6377 77.0173 27.515C75.3625 24.6568 74.6974 21.3325 75.1251 18.0578C75.5527 14.783 77.0493 11.7409 79.3825 9.40347C81.7158 7.066 84.7553 5.56383 88.0295 5.12999C91.3037 4.69615 94.6296 5.35491 97.4911 7.00405C100.353 8.6532 102.59 11.2005 103.856 14.2509C105.122 17.3012 105.345 20.684 104.492 23.8745C103.639 27.065 101.757 29.8847 99.1375 31.8963C96.5181 33.9079 93.3079 34.9989 90.0051 35Z" fill="white"/>
<path d="M167.25 5H151.75C147.47 5 144 8.46979 144 12.75V28.25C144 32.5302 147.47 36 151.75 36H167.25C171.53 36 175 32.5302 175 28.25V12.75C175 8.46979 171.53 5 167.25 5Z" stroke="white" stroke-width="2" stroke-linecap="round" stroke-linejoin="round"/>
<path d="M167.985 13H168M165.767 20.2097C165.949 21.4418 165.739 22.7001 165.166 23.8057C164.593 24.9112 163.686 25.8078 162.575 26.3678C161.464 26.9278 160.204 27.1227 158.976 26.9248C157.747 26.7269 156.612 26.1463 155.733 25.2656C154.853 24.3848 154.273 23.2488 154.075 22.0191C153.877 20.7893 154.072 19.5285 154.632 18.416C155.191 17.3034 156.087 16.3957 157.191 15.822C158.295 15.2484 159.552 15.0379 160.783 15.2206C162.039 15.407 163.201 15.9926 164.098 16.891C164.996 17.7894 165.581 18.9529 165.767 20.2097Z" stroke="white" stroke-width="2" stroke-linecap="round" stroke-linejoin="round"/>
</svg>
