<svg width="73" height="62" viewBox="0 0 73 62" fill="none" xmlns="http://www.w3.org/2000/svg">
<path d="M49.5748 7.57458C52.8699 7.57463 56.1289 8.65161 58.569 11.3138C61.0124 13.9798 62.694 18.3006 62.694 24.9047C62.6939 28.1 61.0549 33.0094 56.8385 38.5287C52.6639 43.9932 45.9831 50.0241 35.9547 55.5326C25.9267 50.0242 19.2464 43.9931 15.0719 38.5287C10.8555 33.0094 9.21646 28.1 9.21643 24.9047C9.21643 18.3006 10.898 13.9798 13.3414 11.3138C15.7815 8.6516 19.0405 7.57464 22.3356 7.57458C25.6637 7.57458 28.137 8.27753 30.1852 9.42712C32.2423 10.5818 33.9008 12.2034 35.5817 14.0922L35.9557 14.5121L36.3287 14.0922C38.0096 12.2034 39.6681 10.5818 41.7252 9.42712C43.7735 8.27751 46.2467 7.57458 49.5748 7.57458ZM49.5748 11.0345C47.1285 11.0345 45.2699 11.4623 43.6149 12.3636C41.9729 13.258 40.5677 14.5993 39.0006 16.3578L35.9547 19.7015L32.9088 16.3578C31.3419 14.5995 29.9374 13.2579 28.2955 12.3636C26.6405 11.4623 24.7819 11.0345 22.3356 11.0345C20.3761 11.0346 18.7748 11.511 17.4821 12.3461C16.1917 13.1797 15.2375 14.3522 14.5406 15.7025C13.1544 18.3889 12.7594 21.8279 12.7594 24.9047C12.7594 26.883 13.8545 30.7986 17.2457 35.5541C20.6476 40.3244 26.3775 45.9666 35.7037 51.3978L35.9557 51.5443L36.2067 51.3978C45.5329 45.9666 51.2628 40.3244 54.6647 35.5541C58.0559 30.7986 59.151 26.883 59.151 24.9047C59.151 21.8279 58.756 18.3889 57.3698 15.7025C56.6729 14.3522 55.7187 13.1797 54.4283 12.3461C53.1356 11.511 51.5343 11.0346 49.5748 11.0345Z" fill="white" stroke="black"/>
</svg>
